<?xml version="1.0" standalone="no"?>
<!DOCTYPE svg PUBLIC "-//W3C//DTD SVG 20010904//EN" "http://www.w3.org/TR/2001/REC-SVG-20010904/DTD/svg10.dtd">
<!-- Created using Krita: https://krita.org -->
<svg xmlns="http://www.w3.org/2000/svg" 
    xmlns:xlink="http://www.w3.org/1999/xlink"
    xmlns:krita="http://krita.org/namespaces/svg/krita"
    xmlns:sodipodi="http://sodipodi.sourceforge.net/DTD/sodipodi-0.dtd"
    width="634.353pt"
    height="463.984pt"
    viewBox="0 0 634.353 463.984">
<defs/>
<path id="shape0" transform="matrix(1.40585672839098 0 0 1.40585672839098 117.394953971005 15.8985843926152)" fill="#000123" fill-rule="evenodd" stroke="#00022e" stroke-width="0.906218215163443" stroke-linecap="square" stroke-linejoin="bevel" d="M129.986 288.177L109.426 303.64L88.3563 303.81L87.8465 277.813L77.7932 266.626L66.4371 277.813L72.3842 283.59L72.2143 304.234L67.5416 304.149L40.6099 270.421L40.1851 242.045L52.1642 224.714L57.6015 224.204L57.6015 207.807L44.9428 207.807L29.0556 229.556L0.254874 218.342L0 149.781L13.5933 145.278L27.9512 159.466L53.1837 160.061L60.7449 144.429L46.7269 137.037L43.1586 143.579L34.5779 143.579L24.298 133.129L24.5528 60.66L46.1322 49.7854L69.2407 72.2992L81.4747 72.4691L81.8145 55.6475L75.1878 55.7324L56.4121 37.0417L56.497 20.5598L82.0694 0.254874L109.596 0L135.933 20.0501L135.423 111.975L117.525 111.975L96.0025 133.157L96.0025 164.762L90.6785 170.199L101.553 181.414L112.428 170.426L112.768 138.821L122.849 128.4L135.423 128.173L136.103 271.611L120.131 260.311L120.3 247.992L103.989 248.077L104.073 266.598Z" sodipodi:nodetypes="ccccccccccccccccccccccccccccccccccccccccccccccccccccc"/><path id="shape01" transform="matrix(1.40585672839098 0 0 1.40585672839098 331.190257833545 16.7346587520179)" fill="#000123" fill-rule="evenodd" stroke="#000126" stroke-width="0.906218215163443" stroke-linecap="square" stroke-linejoin="round" d="M0.226555 267.703L0 283.448L26.7334 303.498L39.4205 303.158L40.2134 276.651L50.2951 265.437L61.6228 276.765L55.8457 282.768L56.0723 303.385L68.3062 303.611L95.2662 269.628L95.8326 240.686L91.0749 232.19L79.8605 231.34L80.0304 214.349L98.891 215.538L108.576 229.132L135.933 217.747L136.159 163.714L122 153.746L106.141 167.169L85.8075 167.622L74.5931 151.367L86.9969 141.823L93.3688 151.367L100.505 151.367L111.55 140.351L111.635 60.0653L89.8855 49.1057L66.777 71.4496L54.8828 71.6196L54.7129 55.0528L60.9149 54.8828L79.8605 36.362L79.7755 19.2005L53.7784 0L26.1671 0.169916L0.509748 19.5403L0.453109 126.786L18.804 127.125L40.3267 148.535L40.3267 180.252L31.9442 194.525L23.675 185.35L24.2413 154.425L13.3667 143.89L0.566386 143.664L0.283193 246.803L15.7455 234.116L15.6323 223.015L31.9442 222.788L31.7176 243.178Z" sodipodi:nodetypes="ccccccccccccccccccccccccccccccccccccccccccccccccccccc"/><text id="shape02" krita:useRichText="false" text-rendering="auto" krita:textVersion="3" transform="matrix(45.739604841126 0 0 49.3252431570674 -8.32748525392344 359.724636491801)" fill="#000123" stroke-opacity="0" stroke="#000000" stroke-width="0" stroke-linecap="square" stroke-linejoin="bevel" kerning="none" letter-spacing="0" word-spacing="0" style="text-align: start;text-align-last: auto;font-family: Segoe UI;font-size: 9;"><tspan x="0">{</tspan></text><text id="shape011" krita:useRichText="true" text-rendering="auto" krita:textVersion="3" transform="matrix(-45.7394943538361 -0.100534958173345 0.108416136844807 -49.3251240084115 642.001960477349 119.320716048583)" fill="#000123" stroke-opacity="0" stroke="#000000" stroke-width="0" stroke-linecap="square" stroke-linejoin="bevel" kerning="none" letter-spacing="0" word-spacing="0" style="text-align: start;text-align-last: auto;font-family: Segoe UI;font-size: 9;"><tspan x="0">{</tspan></text>
</svg>
